<?xml version="1.0" encoding="utf-8"?>
<!-- Generator: Adobe Illustrator 15.1.0, SVG Export Plug-In . SVG Version: 6.00 Build 0)  -->
<!DOCTYPE svg PUBLIC "-//W3C//DTD SVG 1.1//EN" "http://www.w3.org/Graphics/SVG/1.1/DTD/svg11.dtd">
<svg version="1.1" id="Layer_1" xmlns="http://www.w3.org/2000/svg" xmlns:xlink="http://www.w3.org/1999/xlink" x="0px" y="0px"
	 width="300px" height="179.252px" viewBox="0 0 300 179.252" enable-background="new 0 0 300 179.252" xml:space="preserve">
<g id="Camada_x0020_1">
	<g id="_1150630768">
		<g>
			<path fill="#FEFEFE" d="M71.669,116.215h-17.05L41.814,94.525l-12.87,21.689H11.829l20.637-30.972L13.574,56.378h16.489
				L41.782,76.62l11.585-20.242h16.489l-18.76,28.799l20.507,31.038H71.669z M105.735,116.314c-1.349,0.296-2.732,0.493-4.181,0.657
				c-1.448,0.165-3.027,0.264-4.739,0.264c-2.962,0-5.432-0.296-7.44-0.854c-2.007-0.562-3.653-1.384-4.937-2.437
				s-2.237-2.369-2.896-3.885c-0.659-1.546-1.12-3.29-1.448-5.232s-0.494-4.082-0.494-6.451c-0.033-2.338-0.033-4.839-0.033-7.505
				V67.765H71.8V56.378h7.767V41.467h15.537v14.911h9.775v11.387h-9.775v28.8c0,1.908,0.131,3.488,0.362,4.707
				c0.264,1.186,0.626,2.14,1.119,2.799c0.495,0.69,1.054,1.151,1.746,1.382c0.69,0.263,1.48,0.362,2.37,0.362
				c1.579,0,3.291-0.1,5.035-0.329v10.795V116.314z M138.024,117.599c-4.938,0-9.315-0.725-13.101-2.173
				c-3.818-1.448-7.042-3.489-9.644-6.188c-2.602-2.698-4.575-5.99-5.958-9.843c-1.383-3.883-2.074-8.229-2.074-13.066
				c0-4.938,0.69-9.314,2.041-13.2c1.382-3.851,3.323-7.141,5.892-9.841c2.567-2.666,5.694-4.738,9.38-6.122
				c3.687-1.384,7.898-2.107,12.64-2.107c4.542,0,8.623,0.658,12.276,2.007c3.621,1.352,6.748,3.325,9.347,5.958
				c2.602,2.633,4.577,5.859,5.959,9.709c1.383,3.851,2.073,8.23,2.073,13.132v3.721H123.18c0.132,3.126,0.592,5.825,1.382,8.096
				c0.79,2.238,1.843,4.115,3.16,5.564c1.284,1.447,2.83,2.533,4.574,3.226c1.746,0.69,3.687,1.053,5.729,1.053
				c3.227,0,5.958-0.69,8.196-2.073c2.237-1.382,3.851-3.786,4.872-7.177h14.515c-0.559,3.095-1.646,5.894-3.225,8.296
				c-1.581,2.436-3.557,4.475-5.926,6.122c-2.37,1.678-5.134,2.896-8.229,3.752c-3.093,0.821-6.516,1.25-10.17,1.25L138.024,117.599
				z M151.157,80.041c-0.593-5.167-2.14-9.017-4.575-11.584c-2.436-2.534-5.562-3.818-9.446-3.818c-3.787,0-6.913,1.284-9.348,3.818
				c-2.436,2.534-3.951,6.417-4.575,11.584h27.912H151.157z M201.517,117.599c-4.707,0-8.854-0.692-12.573-2.074
				c-3.688-1.383-6.812-3.423-9.382-6.122c-2.566-2.666-4.541-5.957-5.924-9.842c-1.382-3.884-2.074-8.295-2.074-13.265
				c0-4.971,0.692-9.413,2.074-13.298c1.383-3.917,3.357-7.175,5.924-9.841c2.569-2.666,5.694-4.707,9.382-6.056
				c3.686-1.383,7.866-2.074,12.573-2.074c3.555,0,6.813,0.461,9.841,1.351c2.995,0.889,5.629,2.238,7.834,4.014
				c2.238,1.778,4.082,3.951,5.431,6.583c1.383,2.602,2.239,5.563,2.633,8.986h-14.383c-0.429-2.897-1.613-5.2-3.62-6.912
				c-2.008-1.744-4.575-2.6-7.735-2.6c-2.14,0-4.082,0.395-5.793,1.185c-1.745,0.791-3.227,2.008-4.477,3.653
				c-1.251,1.613-2.206,3.686-2.863,6.188c-0.692,2.501-1.021,5.463-1.021,8.888c0,3.39,0.328,6.318,1.021,8.819
				c0.657,2.502,1.612,4.543,2.863,6.189c1.25,1.646,2.731,2.864,4.477,3.686c1.743,0.824,3.686,1.219,5.793,1.219
				c1.513,0,2.93-0.197,4.246-0.657c1.35-0.428,2.501-1.055,3.521-1.91c0.987-0.823,1.81-1.844,2.437-2.996
				c0.591-1.185,0.986-2.468,1.184-3.949h14.384c-0.427,3.291-1.349,6.254-2.764,8.822c-1.383,2.6-3.194,4.772-5.399,6.582
				c-2.238,1.811-4.805,3.16-7.801,4.114c-2.994,0.954-6.253,1.383-9.775,1.383L201.517,117.599z M249.045,51.571
				c0,2.042-0.032,4.081-0.098,6.188c-0.066,2.075-0.132,4.082-0.23,5.991c5.43-5.826,11.552-8.756,18.397-8.756
				c13.66,0,20.473,7.373,20.473,22.086v39.135h-15.534V78.332c0-4.147-0.725-7.111-2.106-8.922
				c-1.383-1.842-3.719-2.764-6.914-2.764c-2.369,0-4.705,0.725-7.075,2.107c-2.337,1.382-4.641,3.456-6.912,6.154v41.308h-15.536
				V33.469h15.536V51.571z"/>
			<path fill="#FEFEFE" d="M18.049,146.859c-1.25,0-2.304-0.23-3.191-0.658c-0.889-0.429-1.548-1.088-2.008-1.909
				c-0.461-0.856-0.658-1.877-0.658-3.095s0.264-2.6,0.79-4.181c0.527-1.547,1.185-2.929,1.975-4.146
				c0.822-1.218,1.711-2.238,2.731-3.093c1.021-0.856,2.107-1.482,3.259-1.909c1.185-0.46,2.403-0.659,3.654-0.659
				c0.953,0,1.809,0.133,2.534,0.396c0.723,0.264,1.316,0.657,1.776,1.152c0.462,0.493,0.757,1.152,0.922,1.908
				c0.132,0.757,0.132,1.646-0.098,2.6h-3.259c0.165-0.559,0.197-1.052,0.165-1.48c-0.066-0.428-0.23-0.789-0.46-1.087
				c-0.263-0.296-0.593-0.493-1.02-0.656c-0.428-0.165-0.89-0.23-1.416-0.23c-0.757,0-1.481,0.164-2.206,0.46
				c-0.723,0.296-1.415,0.758-2.074,1.349c-0.658,0.594-1.251,1.35-1.81,2.272c-0.559,0.888-1.021,1.94-1.415,3.125
				c-0.395,1.186-0.626,2.238-0.692,3.128c-0.066,0.889,0.033,1.646,0.297,2.271c0.23,0.592,0.625,1.054,1.151,1.35
				c0.527,0.296,1.152,0.462,1.909,0.462c0.493,0,1.021-0.067,1.514-0.199c0.527-0.132,0.988-0.361,1.449-0.625
				c0.461-0.297,0.856-0.625,1.218-1.053c0.362-0.429,0.659-0.922,0.856-1.48h3.259c-0.462,0.986-1.021,1.875-1.68,2.633
				c-0.658,0.756-1.382,1.382-2.172,1.877c-0.791,0.493-1.646,0.889-2.567,1.151c-0.922,0.263-1.843,0.395-2.766,0.395
				L18.049,146.859z M58.305,127.209c1.284,0,2.37,0.231,3.259,0.659c0.888,0.46,1.547,1.086,1.974,1.942
				c0.461,0.854,0.659,1.875,0.626,3.093c-0.033,1.218-0.296,2.6-0.791,4.113c-0.526,1.548-1.185,2.963-2.007,4.181
				c-0.79,1.218-1.712,2.238-2.732,3.095c-1.02,0.855-2.106,1.48-3.292,1.909c-1.185,0.461-2.402,0.658-3.653,0.658
				c-1.251,0-2.304-0.23-3.193-0.658c-0.889-0.429-1.546-1.088-2.008-1.909c-0.46-0.856-0.657-1.877-0.657-3.095
				s0.263-2.6,0.79-4.181c0.527-1.547,1.186-2.929,1.975-4.146c0.823-1.218,1.712-2.238,2.731-3.093
				c1.021-0.856,2.107-1.482,3.259-1.909c1.186-0.46,2.403-0.659,3.654-0.659H58.305z M52.609,144.227
				c0.758,0,1.482-0.166,2.207-0.462s1.415-0.758,2.041-1.35c0.657-0.593,1.25-1.349,1.777-2.271c0.56-0.89,1.02-1.942,1.416-3.128
				c0.395-1.185,0.625-2.237,0.69-3.125c0.066-0.89-0.033-1.646-0.295-2.272c-0.23-0.591-0.626-1.053-1.152-1.349
				c-0.527-0.296-1.152-0.46-1.91-0.46c-0.756,0-1.48,0.164-2.205,0.46c-0.725,0.296-1.416,0.758-2.074,1.349
				c-0.659,0.594-1.251,1.35-1.811,2.272c-0.559,0.888-1.019,1.94-1.415,3.125c-0.395,1.186-0.625,2.238-0.69,3.128
				c-0.066,0.889,0.033,1.646,0.296,2.271c0.23,0.592,0.625,1.054,1.152,1.35c0.526,0.296,1.152,0.462,1.908,0.462H52.609z
				 M104.32,146.399h-3.193l4.048-12.114c0.263-0.789,0.429-1.448,0.527-2.007c0.099-0.56,0.066-0.987-0.033-1.351
				c-0.099-0.361-0.297-0.592-0.593-0.756c-0.296-0.165-0.69-0.23-1.185-0.23c-1.547,0-3.391,0.986-5.562,2.995l-4.51,13.43h-3.096
				l4.051-12.114c0.263-0.788,0.427-1.447,0.526-2.006c0.066-0.561,0.066-0.987-0.033-1.352c-0.099-0.361-0.329-0.591-0.626-0.756
				c-0.296-0.164-0.69-0.229-1.185-0.229c-1.514,0-3.357,0.985-5.53,2.994l-4.508,13.43h-3.16l6.286-18.729h3.161l-0.791,2.37
				c2.172-1.876,4.148-2.832,5.959-2.832c2.6,0,3.883,1.152,3.851,3.424c0.856-0.756,1.612-1.35,2.238-1.81
				c0.625-0.462,1.218-0.79,1.711-1.054c0.494-0.229,0.955-0.395,1.382-0.461c0.396-0.066,0.823-0.1,1.218-0.1
				c3.653,0,4.707,2.305,3.16,6.945l-4.113,12.278V146.399z M149.412,146.399h-3.192l4.048-12.114
				c0.263-0.789,0.427-1.448,0.527-2.007c0.098-0.56,0.065-0.987-0.034-1.351c-0.098-0.361-0.295-0.592-0.591-0.756
				c-0.296-0.165-0.692-0.23-1.185-0.23c-1.547,0-3.39,0.986-5.563,2.995l-4.509,13.43h-3.095l4.049-12.114
				c0.264-0.788,0.429-1.447,0.527-2.006c0.065-0.561,0.065-0.987-0.033-1.352c-0.099-0.361-0.329-0.591-0.626-0.756
				c-0.296-0.164-0.69-0.229-1.184-0.229c-1.514,0-3.357,0.985-5.531,2.994l-4.509,13.43h-3.16l6.287-18.729h3.159l-0.789,2.37
				c2.172-1.876,4.147-2.832,5.958-2.832c2.6,0,3.884,1.152,3.851,3.424c0.855-0.756,1.613-1.35,2.237-1.81
				c0.626-0.462,1.218-0.79,1.712-1.054c0.493-0.229,0.955-0.395,1.382-0.461c0.394-0.066,0.823-0.1,1.218-0.1
				c3.653,0,4.706,2.305,3.16,6.945l-4.115,12.278V146.399z M177.85,146.859c-1.283,0-2.402-0.23-3.323-0.658
				c-0.921-0.429-1.613-1.088-2.106-1.909c-0.493-0.856-0.725-1.877-0.725-3.095s0.265-2.6,0.758-4.181
				c0.525-1.514,1.185-2.896,2.008-4.113c0.822-1.218,1.711-2.238,2.731-3.093c1.021-0.856,2.14-1.482,3.291-1.942
				c1.186-0.46,2.37-0.692,3.621-0.692c1.283,0,2.369,0.232,3.259,0.659c0.89,0.46,1.546,1.086,1.976,1.942
				c0.46,0.854,0.657,1.875,0.624,3.093c-0.032,1.218-0.295,2.6-0.789,4.114l-0.265,0.79h-13.396
				c-0.296,1.086-0.427,2.041-0.395,2.83c0.033,0.79,0.197,1.482,0.495,2.008c0.295,0.526,0.723,0.922,1.25,1.186
				c0.526,0.263,1.184,0.395,1.908,0.395c0.527,0,1.054-0.066,1.646-0.23c0.559-0.132,1.12-0.361,1.614-0.657
				c0.525-0.298,0.986-0.659,1.382-1.087c0.395-0.428,0.69-0.921,0.889-1.449h3.323c-0.46,0.955-1.021,1.844-1.711,2.568
				c-0.691,0.756-1.48,1.383-2.304,1.91c-0.856,0.493-1.778,0.889-2.732,1.185c-0.988,0.263-1.976,0.395-2.963,0.395L177.85,146.859
				z M186.441,135.207c0.164-0.889,0.197-1.678,0.132-2.337c-0.066-0.657-0.23-1.218-0.526-1.678
				c-0.296-0.462-0.659-0.791-1.151-1.021c-0.493-0.23-1.055-0.361-1.679-0.361c-0.626,0-1.285,0.099-1.909,0.328
				c-0.626,0.23-1.22,0.559-1.812,0.988c-0.593,0.46-1.152,1.019-1.68,1.678c-0.525,0.659-1.02,1.447-1.447,2.37h10.039
				L186.441,135.207z M220.54,130.697c-0.394-0.164-1.021-0.229-1.843-0.229s-1.646,0.229-2.502,0.659
				c-0.821,0.46-1.678,1.119-2.6,2.007l-4.442,13.266h-3.16l6.286-18.729h3.16l-0.856,2.566c2.041-2.041,3.917-3.062,5.694-3.062
				c0.197,0,0.428,0,0.657,0.033c0.232,0.033,0.462,0.067,0.726,0.133L220.54,130.697z M240.98,146.859
				c-1.252,0-2.304-0.23-3.192-0.658c-0.889-0.429-1.546-1.088-2.008-1.909c-0.461-0.856-0.658-1.877-0.658-3.095
				s0.263-2.6,0.789-4.181c0.528-1.547,1.185-2.929,1.976-4.146c0.823-1.218,1.711-2.238,2.731-3.093
				c1.021-0.856,2.106-1.482,3.259-1.909c1.186-0.46,2.403-0.659,3.655-0.659c0.954,0,1.809,0.133,2.533,0.396
				c0.724,0.264,1.317,0.657,1.777,1.152c0.462,0.493,0.757,1.152,0.922,1.908c0.131,0.757,0.131,1.646-0.099,2.6h-3.259
				c0.164-0.559,0.196-1.052,0.164-1.48c-0.065-0.428-0.23-0.789-0.461-1.087c-0.263-0.296-0.591-0.493-1.02-0.656
				c-0.428-0.165-0.89-0.23-1.415-0.23c-0.758,0-1.482,0.164-2.206,0.46c-0.725,0.296-1.416,0.758-2.074,1.349
				c-0.658,0.594-1.25,1.35-1.811,2.272c-0.559,0.888-1.02,1.94-1.415,3.125c-0.395,1.186-0.626,2.238-0.691,3.128
				c-0.065,0.889,0.032,1.646,0.297,2.271c0.23,0.592,0.625,1.054,1.152,1.35c0.525,0.296,1.152,0.462,1.908,0.462
				c0.494,0,1.021-0.067,1.514-0.199c0.527-0.132,0.988-0.361,1.449-0.625c0.46-0.297,0.856-0.625,1.218-1.053
				c0.363-0.429,0.659-0.922,0.856-1.48h3.259c-0.46,0.986-1.021,1.875-1.678,2.633c-0.659,0.756-1.384,1.382-2.174,1.877
				c-0.79,0.493-1.646,0.889-2.567,1.151s-1.845,0.395-2.767,0.395L240.98,146.859z M274.981,146.859
				c-1.283,0-2.402-0.23-3.325-0.658c-0.919-0.429-1.611-1.088-2.104-1.909c-0.494-0.856-0.725-1.877-0.725-3.095
				s0.263-2.6,0.758-4.181c0.525-1.514,1.185-2.896,2.006-4.113c0.824-1.218,1.713-2.238,2.733-3.093
				c1.02-0.856,2.138-1.482,3.29-1.942c1.185-0.46,2.37-0.692,3.62-0.692c1.284,0,2.37,0.232,3.26,0.659
				c0.889,0.46,1.546,1.086,1.975,1.942c0.461,0.854,0.658,1.875,0.625,3.093s-0.296,2.6-0.791,4.114l-0.263,0.79h-13.395
				c-0.297,1.086-0.428,2.041-0.396,2.83c0.033,0.79,0.197,1.482,0.493,2.008c0.298,0.526,0.725,0.922,1.251,1.186
				c0.527,0.263,1.185,0.395,1.909,0.395c0.526,0,1.054-0.066,1.646-0.23c0.56-0.132,1.119-0.361,1.614-0.657
				c0.525-0.298,0.985-0.659,1.381-1.087s0.69-0.921,0.888-1.449h3.325c-0.46,0.955-1.021,1.844-1.711,2.568
				c-0.691,0.756-1.482,1.383-2.305,1.91c-0.855,0.493-1.777,0.889-2.73,1.185c-0.988,0.263-1.976,0.395-2.963,0.395
				L274.981,146.859z M283.572,135.207c0.164-0.889,0.197-1.678,0.131-2.337c-0.065-0.657-0.229-1.218-0.526-1.678
				c-0.296-0.462-0.658-0.791-1.151-1.021c-0.494-0.23-1.054-0.361-1.68-0.361c-0.624,0-1.283,0.099-1.908,0.328
				c-0.626,0.23-1.217,0.559-1.811,0.988c-0.592,0.46-1.152,1.019-1.678,1.678c-0.526,0.659-1.021,1.447-1.448,2.37h10.038
				L283.572,135.207z"/>
		</g>
	</g>
</g>
</svg>
