<svg xmlns="http://www.w3.org/2000/svg" viewBox="0 0 1306.25 1312.79"><defs><style>.cls-1{fill:#f4f4f4;}</style></defs><title>circulo-fundo-home_1</title><g id="Layer_4"><path class="cls-1" d="M1107.66 1122.57a.84.84 0 0 1-.58-1.43q3.59-3.49 7.12-7a.84.84 0 0 1 1.18 1.18q-3.54 3.56-7.14 7.05a.83.83 0 0 1-.58.2zm14.16-14.19a.84.84 0 0 1-.6-1.42q3.48-3.59 6.91-7.24a.84.84 0 0 1 1.22 1.15q-3.44 3.66-6.92 7.26a.83.83 0 0 1-.61.25zm13.72-14.61a.84.84 0 0 1-.62-1.4q3.37-3.7 6.68-7.45a.84.84 0 1 1 1.25 1.11q-3.32 3.76-6.7 7.47a.83.83 0 0 1-.61.27zm13.26-15a.84.84 0 0 1-.63-1.38q3.25-3.8 6.45-7.65a.84.84 0 0 1 1.29 1.07q-3.21 3.86-6.47 7.67a.83.83 0 0 1-.64.27zm12.8-15.42a.84.84 0 0 1-.65-1.36q3.13-3.9 6.21-7.84a.84.84 0 0 1 1.32 1q-3.09 4-6.23 7.86a.83.83 0 0 1-.65.33zm12.32-15.8a.83.83 0 0 1-.67-1.34l6-8a.83.83 0 1 1 1.35 1q-3 4-6 8.05a.84.84 0 0 1-.68.28zm11.83-16.17a.84.84 0 0 1-.68-1.32q2.89-4.08 5.72-8.21a.84.84 0 0 1 1.38.95q-2.84 4.14-5.73 8.23a.83.83 0 0 1-.69.34zm11.33-16.52a.84.84 0 0 1-.7-1.3q2.76-4.17 5.47-8.38a.84.84 0 0 1 1.41.9q-2.71 4.22-5.48 8.4a.84.84 0 0 1-.7.37zm10.81-16.86a.84.84 0 0 1-.71-1.28q2.63-4.25 5.21-8.54a.83.83 0 0 1 1.43.86q-2.58 4.3-5.22 8.56a.83.83 0 0 1-.71.4zm10.29-17.18a.82.82 0 0 1-.42-.11.83.83 0 0 1-.31-1.14q2.5-4.33 4.94-8.69a.83.83 0 1 1 1.46.81q-2.44 4.38-5 8.72a.84.84 0 0 1-.67.41zm9.76-17.49a.85.85 0 0 1-.4-.1.84.84 0 0 1-.34-1.13q2.37-4.4 4.67-8.84a.84.84 0 0 1 1.48.77q-2.31 4.45-4.68 8.86a.84.84 0 0 1-.73.44zm9.21-17.77a.84.84 0 0 1-.75-1.21q2.23-4.47 4.39-9a.84.84 0 0 1 1.51.72q-2.17 4.52-4.41 9a.84.84 0 0 1-.74.48zm8.66-18a.84.84 0 0 1-.76-1.18q2.09-4.54 4.12-9.11a.83.83 0 1 1 1.53.68q-2 4.59-4.13 9.13a.83.83 0 0 1-.76.43zm8.1-18.3a.82.82 0 0 1-.33-.07.83.83 0 0 1-.44-1.09q2-4.6 3.83-9.23a.83.83 0 0 1 1.55.63q-1.88 4.64-3.84 9.25a.83.83 0 0 1-.77.46zm7.53-18.54a.82.82 0 0 1-.3-.06.83.83 0 0 1-.48-1.08q1.81-4.65 3.54-9.34a.84.84 0 0 1 1.57.58q-1.74 4.7-3.55 9.36a.83.83 0 0 1-.78.49zm7-18.76a.82.82 0 0 1-.28 0 .84.84 0 0 1-.51-1.07q1.66-4.71 3.25-9.45a.83.83 0 1 1 1.58.53q-1.59 4.75-3.26 9.47a.83.83 0 0 1-.83.47zm6.37-19a.85.85 0 0 1-.25 0 .84.84 0 0 1-.54-1.05q1.51-4.75 3-9.54a.83.83 0 1 1 1.6.48q-1.45 4.8-3 9.56a.84.84 0 0 1-.86.53zm5.77-19.15a.8.8 0 0 1-.23 0 .83.83 0 0 1-.57-1q1.37-4.8 2.66-9.62a.85.85 0 0 1 1-.59.84.84 0 0 1 .59 1q-1.3 4.84-2.67 9.65a.84.84 0 0 1-.83.54zm5.18-19.31h-.2a.84.84 0 0 1-.61-1q1.22-4.84 2.37-9.7a.82.82 0 0 1 1-.62.83.83 0 0 1 .62 1q-1.15 4.88-2.37 9.73a.84.84 0 0 1-.86.57zm4.58-19.46h-.18a.83.83 0 0 1-.64-1q1.07-4.87 2.06-9.77a.84.84 0 1 1 1.64.33q-1 4.91-2.07 9.79a.83.83 0 0 1-.86.61zm4-19.59h-.15a.83.83 0 0 1-.67-1q.92-4.9 1.76-9.82a.84.84 0 1 1 1.65.28q-.85 4.94-1.77 9.85a.84.84 0 0 1-.89.67zm3.37-19.7h-.13a.84.84 0 0 1-.7-1q.77-4.92 1.46-9.87a.85.85 0 0 1 .94-.71.84.84 0 0 1 .71.94q-.69 5-1.46 9.9a.84.84 0 0 1-.89.73zm2.77-19.78h-.1a.83.83 0 0 1-.73-.93q.61-4.94 1.15-9.91a.84.84 0 1 1 1.66.18q-.54 5-1.16 9.93a.84.84 0 0 1-.89.76zm2.16-19.89h-.08a.84.84 0 0 1-.75-.91q.46-5 .85-10a.83.83 0 0 1 1.66.13q-.39 5-.85 10a.84.84 0 0 1-.9.76zm1.55-20h-.05a.84.84 0 0 1-.78-.89q.31-5 .55-10a.8.8 0 0 1 .87-.79.83.83 0 0 1 .79.87q-.24 5-.55 10a.84.84 0 0 1-.89.81zm.95-20a.84.84 0 0 1-.81-.86q.16-5 .25-10a.78.78 0 0 1 .85-.82.83.83 0 0 1 .82.85q-.09 5-.25 10a.84.84 0 0 1-.93.81zm.34-20a.83.83 0 0 1-.83-.84v-1.32q0-4.36-.06-8.71a.84.84 0 0 1 .82-.85.84.84 0 0 1 .84.82q.06 4.36.06 8.73v1.32a.84.84 0 0 1-.9.77zm-.26-20.08a.84.84 0 0 1-.84-.81q-.14-5-.36-10a.84.84 0 0 1 .8-.87.88.88 0 0 1 .87.8q.22 5 .36 10a.84.84 0 0 1-.81.86zm-.87-20.06a.83.83 0 0 1-.83-.79q-.29-5-.66-10a.84.84 0 1 1 1.67-.12q.37 5 .66 10a.83.83 0 0 1-.78.88zm-1.48-20a.83.83 0 0 1-.83-.76q-.45-5-1-10a.83.83 0 1 1 1.66-.17q.52 5 1 10a.84.84 0 0 1-.76.91zm-2.09-20a.83.83 0 0 1-.83-.74q-.6-5-1.28-9.94a.83.83 0 0 1 1.65-.23q.68 5 1.28 10a.83.83 0 0 1-.73.93zm-2.78-19.94a.84.84 0 0 1-.82-.71q-.75-5-1.58-9.9a.84.84 0 0 1 1.65-.28q.83 5 1.58 9.92a.83.83 0 0 1-.7 1zm-3.32-19.79a.84.84 0 0 1-.82-.68q-.91-4.94-1.88-9.84a.83.83 0 0 1 1.64-.33q1 4.92 1.89 9.87a.84.84 0 0 1-.67 1zm-3.92-19.68a.83.83 0 0 1-.81-.66q-1.06-4.9-2.19-9.78a.84.84 0 0 1 1.63-.38q1.13 4.89 2.19 9.8a.84.84 0 0 1-.64 1zm-4.54-19.53a.84.84 0 0 1-.81-.63q-1.21-4.87-2.49-9.7a.84.84 0 1 1 1.61-.43q1.29 4.85 2.5 9.73a.83.83 0 0 1-.61 1zm-5.14-19.39a.84.84 0 0 1-.8-.61q-1.36-4.83-2.79-9.62a.84.84 0 1 1 1.6-.48q1.43 4.81 2.8 9.65a.83.83 0 0 1-.8 1.06zm-5.73-19.23a.84.84 0 0 1-.8-.58q-1.51-4.78-3.09-9.53a.84.84 0 0 1 1.59-.53q1.58 4.76 3.09 9.56a.84.84 0 0 1-.8 1.09zm-6.33-19a.83.83 0 0 1-.79-.56q-1.65-4.73-3.38-9.43a.84.84 0 1 1 1.57-.57q1.73 4.71 3.39 9.45a.83.83 0 0 1-.51 1.06.82.82 0 0 1-.3.03zm-6.91-18.83a.84.84 0 0 1-.78-.54q-1.8-4.68-3.67-9.32a.84.84 0 0 1 1.55-.62q1.87 4.65 3.68 9.34a.84.84 0 0 1-.48 1.08.85.85 0 0 1-.3.04zm-7.49-18.61a.84.84 0 0 1-.77-.51q-1.94-4.62-4-9.2a.84.84 0 0 1 1.53-.67q2 4.59 4 9.22a.84.84 0 0 1-.77 1.16zm-8.06-18.36a.84.84 0 0 1-.76-.49q-2.08-4.55-4.24-9.07a.83.83 0 0 1 1.51-.72q2.16 4.53 4.25 9.1a.83.83 0 0 1-.76 1.18zm-8.63-18.1a.84.84 0 0 1-.75-.46q-2.22-4.49-4.52-8.94a.84.84 0 1 1 1.48-.77q2.3 4.46 4.53 9a.84.84 0 0 1-.75 1.21zm-9.18-17.83a.83.83 0 0 1-.74-.44l-1.93-3.58a.84.84 0 0 1 1.47-.8l1.93 3.59a.83.83 0 0 1-.34 1.13.82.82 0 0 1-.39.08z"/><path class="cls-1" d="M20.24 813.27a.84.84 0 0 1-.81-.63q-1.21-4.86-2.36-9.76a.83.83 0 1 1 1.63-.38q1.14 4.88 2.35 9.73a.84.84 0 0 1-.61 1zm-4.56-19.52a.84.84 0 0 1-.82-.66q-1.06-4.9-2.05-9.83a.84.84 0 0 1 1.64-.33q1 4.91 2 9.8a.83.83 0 0 1-.64 1zm-3.95-19.65a.83.83 0 0 1-.82-.68q-.91-4.93-1.75-9.88a.84.84 0 1 1 1.65-.28q.84 4.94 1.74 9.86a.83.83 0 0 1-.67 1zm-3.34-19.77a.84.84 0 0 1-.82-.71q-.76-5-1.44-9.93a.83.83 0 0 1 1.65-.23q.68 5 1.44 9.9a.84.84 0 0 1-.7 1zm-2.73-19.86a.83.83 0 0 1-.83-.73q-.61-5-1.14-10a.83.83 0 0 1 .74-.92.85.85 0 0 1 .92.74q.53 5 1.14 9.95a.83.83 0 0 1-.73.93zm-2.12-19.93a.84.84 0 0 1-.83-.76q-.45-5-.83-10a.84.84 0 0 1 .77-.9.85.85 0 0 1 .9.77q.38 5 .83 10a.84.84 0 0 1-.76.91zm-1.54-19.99a.83.83 0 0 1-.83-.78q-.3-5-.53-10a.84.84 0 0 1 1.67-.08q.23 5 .53 10a.84.84 0 0 1-.78.88zm-.9-20a.84.84 0 0 1-.83-.81q-.15-5-.22-10a.84.84 0 0 1 .82-.85.86.86 0 0 1 .85.82q.07 5 .22 10a.84.84 0 0 1-.81.86zm-.3-20a.83.83 0 0 1-.84-.84q0-5 .08-10a.84.84 0 0 1 .84-.82.83.83 0 0 1 .82.85q-.08 5-.08 10a.84.84 0 0 1-.78.74zm.31-20a.84.84 0 0 1-.81-.86q.15-5 .38-10a.84.84 0 0 1 1.67.08q-.23 5-.38 10a.84.84 0 0 1-.82.67zm.92-20h-.03a.83.83 0 0 1-.78-.88q.31-5 .69-10a.84.84 0 1 1 1.67.13q-.38 5-.69 10a.83.83 0 0 1-.83.62zm1.52-20h-.04a.84.84 0 0 1-.76-.91q.46-5 1-10a.83.83 0 0 1 .92-.74.84.84 0 0 1 .74.92q-.53 5-1 10a.84.84 0 0 1-.82.61zm2.17-20.05h-.1a.83.83 0 0 1-.73-.93q.61-5 1.3-10a.83.83 0 0 1 1.65.23q-.68 5-1.29 9.92a.83.83 0 0 1-.83.78z"/><path class="cls-1" d="M655.63 1147.34a513.56 513.56 0 0 1-464.46-294.22 17.72 17.72 0 0 0-20-9.72l-123.17 27.06a1.67 1.67 0 1 1-.72-3.26l123.22-27.06a21 21 0 0 1 23.69 11.55 510.21 510.21 0 0 0 461.44 292.31h.1c171.2 0 329.93-84.8 424.61-226.75a1.67 1.67 0 0 1 2.78 1.85c-95.29 142.88-255.07 228.2-427.39 228.23zm460.78-288.08a1.67 1.67 0 0 1-1.5-2.4c35.35-73 52.44-151.52 50.78-233.52a506.52 506.52 0 0 0-42.84-194.7 1.67 1.67 0 1 1 3.06-1.34 509.81 509.81 0 0 1 43.13 196c1.67 82.53-15.53 161.62-51.12 235a1.67 1.67 0 0 1-1.51.96zm-950.6-74.81a1.67 1.67 0 0 1-1.6-1.18 515.11 515.11 0 0 1-3.79-285.27 10.4 10.4 0 0 0-12.07-13l-121.22 24.44a1.67 1.67 0 0 1-.66-3.28l121.21-24.38a13.74 13.74 0 0 1 16 17.14 511.77 511.77 0 0 0 3.77 283.37 1.67 1.67 0 0 1-1.6 2.16zm26.7-366.45a1.67 1.67 0 0 1-1.51-2.38c86.78-183.62 273.51-299.44 475.69-295.16a513.35 513.35 0 0 1 434.71 258.31 17.09 17.09 0 0 0 22.23 6.8l90.45-43.89a1.67 1.67 0 0 1 1.46 3l-90.45 43.89a20.44 20.44 0 0 1-26.59-8.15 510 510 0 0 0-431.88-256.62c-200.93-4.31-386.38 110.86-472.62 293.2a1.67 1.67 0 0 1-1.49 1z"/><path class="cls-1" d="M14.92 511h-.19a.83.83 0 0 1-.63-1q.56-2.45 1.13-4.89a.84.84 0 0 1 1.63.38q-.58 2.43-1.13 4.87a.84.84 0 0 1-.81.64z"/><path class="cls-1" d="M18.43 496.42h-.2a.83.83 0 0 1-.61-1q1.23-4.88 2.53-9.73a.84.84 0 0 1 1.61.43q-1.3 4.84-2.53 9.71a.84.84 0 0 1-.8.59zm5.21-19.42a.8.8 0 0 1-.23 0 .83.83 0 0 1-.57-1q1.38-4.84 2.83-9.65a.83.83 0 1 1 1.6.48q-1.45 4.79-2.82 9.62a.84.84 0 0 1-.81.55zm5.8-19.22a.86.86 0 0 1-.25 0 .84.84 0 0 1-.54-1.05q1.53-4.79 3.13-9.55a.84.84 0 0 1 1.58.53q-1.6 4.75-3.12 9.53a.84.84 0 0 1-.8.56zm6.39-19a.83.83 0 0 1-.79-1.11q1.67-4.74 3.42-9.45a.84.84 0 1 1 1.57.58q-1.74 4.69-3.41 9.42a.84.84 0 0 1-.78.56zm7-18.81a.82.82 0 0 1-.3-.06.83.83 0 0 1-.48-1.08q1.82-4.69 3.71-9.34a.84.84 0 0 1 1.55.63q-1.88 4.64-3.7 9.31a.84.84 0 0 1-.8.57zm7.55-18.58a.82.82 0 0 1-.33-.07.84.84 0 0 1-.44-1.09q2-4.62 4-9.21a.84.84 0 0 1 1.53.68q-2 4.58-4 9.19a.84.84 0 0 1-.78.49zm8.1-18.39a.83.83 0 0 1-.76-1.18q2.1-4.56 4.27-9.08a.84.84 0 1 1 1.51.72q-2.17 4.51-4.26 9.06a.83.83 0 0 1-.76.48zm8.67-18a.82.82 0 0 1-.37-.09.83.83 0 0 1-.37-1.12q2.24-4.49 4.55-8.95a.84.84 0 1 1 1.48.77q-2.3 4.44-4.54 8.92a.83.83 0 0 1-.75.47zm9.22-17.8a.84.84 0 0 1-.73-1.23q2.38-4.42 4.82-8.8a.83.83 0 1 1 1.46.81q-2.44 4.37-4.81 8.78a.84.84 0 0 1-.74.41zm9.76-17.5a.82.82 0 0 1-.42-.11.83.83 0 0 1-.31-1.14q2.51-4.35 5.09-8.65a.84.84 0 0 1 1.43.86q-2.57 4.29-5.07 8.62a.84.84 0 0 1-.72.39zm10.29-17.19a.84.84 0 0 1-.71-1.28q2.64-4.26 5.35-8.48a.83.83 0 1 1 1.41.9q-2.7 4.21-5.33 8.46a.84.84 0 0 1-.72.37zm10.81-16.86a.84.84 0 0 1-.7-1.3q2.77-4.18 5.6-8.32a.84.84 0 1 1 1.38.94q-2.82 4.13-5.59 8.3a.83.83 0 0 1-.69.35zm1096.53 3.77a.84.84 0 0 1 1.51-.61l5.73 8.19a.83.83 0 1 1-1.37 1l-5.75-8.18a.83.83 0 0 1-.12-.43zm-4.54-6.46a.83.83 0 0 1-.69-.37q-2.78-4.15-5.62-8.26a.83.83 0 1 1 1.37-.95q2.85 4.12 5.64 8.28a.84.84 0 0 1-.69 1.3zm-1080.68-13.87a.82.82 0 0 1-.48-.15.84.84 0 0 1-.2-1.16q2.89-4.09 5.85-8.14a.84.84 0 0 1 1.35 1q-2.95 4-5.84 8.12a.83.83 0 0 1-.68.33zm1069.3-2.61a.83.83 0 0 1-.68-.35q-2.9-4.06-5.86-8.08a.84.84 0 0 1 1.34-1q3 4 5.88 8.1a.83.83 0 0 1-.68 1.32zm-1057.49-13.56a.84.84 0 0 1-.67-1.34q3-4 6.1-8a.83.83 0 1 1 1.32 1q-3.1 4.02-6.1 8.01a.83.83 0 0 1-.65.33zm1045.65-2.52a.83.83 0 0 1-.66-.33q-3-4-6.11-7.9a.84.84 0 1 1 1.31-1q3.09 3.93 6.12 7.92a.83.83 0 0 1-.16 1.17.82.82 0 0 1-.5.14zm-1033.36-13.27a.84.84 0 0 1-.65-1.36q3.14-3.91 6.33-7.77a.84.84 0 0 1 1.29 1.07q-3.19 3.85-6.32 7.75a.84.84 0 0 1-.65.31zm1021-2.45a.83.83 0 0 1-.65-.31q-3.14-3.88-6.35-7.71a.84.84 0 1 1 1.28-1.07q3.21 3.84 6.36 7.73a.83.83 0 0 1-.12 1.17.82.82 0 0 1-.55.19zm-1008.21-13a.84.84 0 0 1-.64-1.38q3.25-3.81 6.56-7.57a.84.84 0 0 1 1.25 1.1q-3.3 3.75-6.55 7.55a.84.84 0 0 1-.64.33zm995.38-2.37a.83.83 0 0 1-.63-.29q-3.26-3.78-6.58-7.51a.84.84 0 1 1 1.25-1.11q3.33 3.74 6.6 7.53a.84.84 0 0 1-.63 1.38zm-982.18-12.62a.84.84 0 0 1-.62-1.4q3.37-3.71 6.79-7.37a.83.83 0 1 1 1.22 1.14q-3.41 3.65-6.77 7.35a.83.83 0 0 1-.62.28zm968.86-2.3a.83.83 0 0 1-.61-.27q-3.38-3.68-6.81-7.31a.84.84 0 1 1 1.21-1.15q3.44 3.64 6.82 7.33a.83.83 0 0 1-.61 1.4zm-955.19-12.3a.83.83 0 0 1-.6-1.41q3.48-3.6 7-7.16a.84.84 0 0 1 1.18 1.18q-3.52 3.54-7 7.14a.83.83 0 0 1-.58.25zm941.45-2.23a.84.84 0 0 1-.6-.25q-3.49-3.58-7-7.1a.84.84 0 0 1 1.18-1.18q3.55 3.53 7 7.12a.84.84 0 0 1-.6 1.42zm-927.34-11.95a.84.84 0 0 1-.58-1.43q3.58-3.49 7.22-6.94a.84.84 0 0 1 1.15 1.21q-3.63 3.43-7.2 6.92a.83.83 0 0 1-.59.24zm913.17-2.17a.84.84 0 0 1-.58-.23q-3.59-3.47-7.24-6.89a.84.84 0 0 1 1.14-1.22q3.66 3.43 7.26 6.91a.84.84 0 0 1-.58 1.44zm-898.64-11.58a.84.84 0 0 1-.57-1.45q3.69-3.39 7.43-6.71a.83.83 0 1 1 1.11 1.25q-3.73 3.32-7.41 6.7a.84.84 0 0 1-.56.21zm884.06-2.11a.83.83 0 0 1-.56-.22q-3.7-3.36-7.45-6.67a.84.84 0 0 1 1.11-1.25q3.76 3.31 7.46 6.68a.84.84 0 0 1-.56 1.45zm-869.13-11.18a.83.83 0 0 1-.55-1.47q3.79-3.27 7.62-6.49a.84.84 0 1 1 1.07 1.28q-3.83 3.21-7.61 6.47a.83.83 0 0 1-.53.21zm854.11-2a.83.83 0 0 1-.54-.2q-3.8-3.25-7.64-6.44a.84.84 0 0 1 1.07-1.29q3.86 3.2 7.66 6.45a.84.84 0 0 1-.54 1.47zm-838.78-10.87a.84.84 0 0 1-.53-1.48q3.88-3.15 7.82-6.25a.83.83 0 0 1 1 1.31q-3.92 3.09-7.8 6.23a.83.83 0 0 1-.49.19zm823.37-2a.83.83 0 0 1-.52-.18q-3.89-3.13-7.84-6.2a.84.84 0 0 1 1-1.32q4 3.08 7.86 6.22a.84.84 0 0 1-.52 1.49zm-807.66-10.33a.83.83 0 0 1-.51-1.5l8-6a.84.84 0 0 1 1 1.34l-8 6a.83.83 0 0 1-.49.16zm791.88-1.93a.84.84 0 0 1-.5-.17l-8-6a.83.83 0 0 1 1-1.35l8 6a.84.84 0 0 1-.5 1.5zm-775.79-9.95a.83.83 0 0 1-.49-1.51q4.07-2.91 8.18-5.76a.84.84 0 1 1 1 1.37q-4.1 2.84-8.16 5.75a.83.83 0 0 1-.53.15zm759.65-1.87a.84.84 0 0 1-.48-.15q-4.08-2.89-8.2-5.72a.84.84 0 1 1 .95-1.38q4.13 2.83 8.22 5.73a.84.84 0 0 1-.48 1.52zm-743.25-9.51a.84.84 0 0 1-.47-1.53q4.15-2.79 8.35-5.51a.84.84 0 0 1 .91 1.4q-4.19 2.71-8.33 5.49a.83.83 0 0 1-.46.15zm726.72-1.81a.84.84 0 0 1-.46-.14q-4.17-2.76-8.37-5.46a.84.84 0 0 1 .9-1.41q4.22 2.71 8.39 5.48a.84.84 0 0 1-.46 1.53zm-710-9.06a.84.84 0 0 1-.44-1.54q4.23-2.65 8.51-5.25a.84.84 0 0 1 .87 1.43q-4.27 2.59-8.49 5.24a.83.83 0 0 1-.42.12zm693.11-1.76a.83.83 0 0 1-.44-.13q-4.25-2.64-8.54-5.21a.83.83 0 1 1 .86-1.43q4.3 2.58 8.56 5.22a.84.84 0 0 1-.44 1.54zm-676-8.6a.84.84 0 0 1-.42-1.56q4.31-2.53 8.66-5a.84.84 0 0 1 .82 1.46q-4.34 2.45-8.64 5a.84.84 0 0 1-.42.1zm658.86-1.7a.83.83 0 0 1-.42-.11q-4.33-2.51-8.69-4.95a.84.84 0 0 1 .82-1.46q4.38 2.45 8.72 5a.84.84 0 0 1-.42 1.56zm-641.49-8.12a.83.83 0 0 1-.4-1.57q4.38-2.39 8.81-4.72a.84.84 0 0 1 .78 1.48q-4.41 2.32-8.79 4.71a.82.82 0 0 1-.4.1zm624-1.64a.85.85 0 0 1-.4-.1q-4.4-2.37-8.84-4.68a.83.83 0 1 1 .77-1.48q4.45 2.31 8.87 4.69a.84.84 0 0 1-.4 1.57zm-606.33-7.65a.84.84 0 0 1-.38-1.58q4.45-2.26 8.95-4.45a.83.83 0 1 1 .73 1.5q-4.48 2.19-8.92 4.44a.84.84 0 0 1-.38.09zm588.55-1.58a.83.83 0 0 1-.37-.09q-4.48-2.24-9-4.41a.83.83 0 1 1 .72-1.5q4.52 2.18 9 4.42a.84.84 0 0 1-.37 1.58zm-570.62-7.17a.84.84 0 0 1-.36-1.59q4.52-2.12 9.08-4.17a.84.84 0 0 1 .69 1.52q-4.55 2-9.05 4.16a.83.83 0 0 1-.36.08zm552.56-1.52a.84.84 0 0 1-.35-.08q-4.54-2.1-9.12-4.13a.84.84 0 0 1 .68-1.53q4.59 2 9.14 4.14a.84.84 0 0 1-.35 1.59zm-534.37-6.67a.84.84 0 0 1-.33-1.6q4.58-2 9.2-3.89a.84.84 0 1 1 .64 1.54q-4.61 1.91-9.17 3.88a.82.82 0 0 1-.34.07zm516.05-1.46a.82.82 0 0 1-.33-.07q-4.6-2-9.24-3.85a.83.83 0 1 1 .63-1.55q4.65 1.89 9.26 3.86a.84.84 0 0 1-.33 1.6zm-497.62-6.16a.84.84 0 0 1-.31-1.61q4.64-1.84 9.31-3.61a.84.84 0 0 1 .59 1.56q-4.66 1.76-9.28 3.6a.85.85 0 0 1-.31.06zm479.06-1.39a.83.83 0 0 1-.3-.06q-4.66-1.82-9.36-3.56a.84.84 0 0 1 .58-1.57q4.71 1.75 9.38 3.57a.84.84 0 0 1-.3 1.61zm-460.42-5.67a.84.84 0 0 1-.28-1.62q4.69-1.69 9.41-3.32a.83.83 0 1 1 .54 1.58q-4.71 1.62-9.39 3.31a.86.86 0 0 1-.28.05zm441.63-1.32a.84.84 0 0 1-.28 0q-4.72-1.67-9.46-3.27a.84.84 0 0 1 .54-1.58q4.76 1.61 9.49 3.28a.84.84 0 0 1-.28 1.62zm-422.79-5.13a.84.84 0 0 1-.26-1.63q4.76-1.55 9.54-3a.84.84 0 1 1 .49 1.6q-4.78 1.48-9.52 3a.85.85 0 0 1-.25.03zm403.78-1.24a.86.86 0 0 1-.25 0q-4.77-1.53-9.56-3a.84.84 0 1 1 .48-1.6q4.81 1.46 9.59 3a.84.84 0 0 1-.25 1.63zm-384.67-4.71a.83.83 0 0 1-.23-1.64q4.8-1.41 9.63-2.74a.83.83 0 1 1 .45 1.61q-4.82 1.33-9.61 2.74a.84.84 0 0 1-.24.03zm365.48-1.14a.81.81 0 0 1-.23 0q-4.81-1.41-9.66-2.71a.83.83 0 1 1 .43-1.61q4.85 1.31 9.68 2.69a.84.84 0 0 1-.23 1.64zm-346.2-4.19a.84.84 0 0 1-.21-1.64q4.84-1.26 9.71-2.44a.83.83 0 1 1 .39 1.62q-4.86 1.18-9.69 2.44a.79.79 0 0 1-.2.02zm326.83-1h-.21q-4.85-1.23-9.73-2.38a.84.84 0 0 1-.62-1 .82.82 0 0 1 1-.62q4.89 1.16 9.76 2.39a.84.84 0 0 1-.21 1.64zm-307.39-3.72a.83.83 0 0 1-.18-1.65q4.88-1.11 9.78-2.15a.84.84 0 0 1 .35 1.63q-4.89 1-9.76 2.14zm287.87-.94h-.18q-4.9-1.06-9.82-2.06a.84.84 0 1 1 .33-1.64q4.93 1 9.83 2.09a.84.84 0 0 1-.18 1.65zm-268.3-3.21a.84.84 0 0 1-.16-1.66q4.91-1 9.84-1.84a.84.84 0 0 1 .3 1.64q-4.92.88-9.82 1.84zm248.62-.85h-.16q-4.92-.92-9.87-1.78a.84.84 0 0 1 .28-1.65q5 .86 9.89 1.79a.84.84 0 0 1-.15 1.66zm-228.93-2.69a.83.83 0 0 1-.13-1.66q4.94-.81 9.9-1.54a.83.83 0 1 1 .24 1.65q-4.95.73-9.87 1.54zm209.15-.69h-.13q-4.93-.78-9.88-1.47a.84.84 0 0 1 .23-1.65q5 .7 9.91 1.48a.84.84 0 0 1-.13 1.66zm-189.36-2.24a.84.84 0 0 1-.11-1.66q5-.66 9.94-1.24a.84.84 0 0 1 .19 1.66q-5 .58-9.91 1.24zm169.55-.56h-.11q-5-.62-9.92-1.17a.84.84 0 0 1-.74-.92.85.85 0 0 1 .92-.74q5 .55 9.95 1.17a.84.84 0 0 1-.1 1.66zm-149.73-1.76a.83.83 0 0 1 0-1.67q5-.51 10-.94a.84.84 0 0 1 .15 1.66q-5 .43-9.95.93zm129.79-.42h-.08q-5-.47-10-.87a.83.83 0 0 1-.77-.9.82.82 0 0 1 .9-.77q5 .4 10 .87a.84.84 0 0 1-.08 1.67zm-109.79-1.3a.84.84 0 0 1-.06-1.67q5-.35 10-.63a.81.81 0 0 1 .88.79.83.83 0 0 1-.79.88q-5 .28-10 .63zm89.9-.34h-.05q-5-.32-10-.57a.84.84 0 0 1-.79-.87.81.81 0 0 1 .94-.75q5 .25 10 .57a.84.84 0 0 1-.1 1.62zm-69.9-.78a.84.84 0 0 1 0-1.67q5-.2 10-.33a.82.82 0 0 1 .86.81.84.84 0 0 1-.81.86q-5 .13-10 .33zm50-.16q-5-.17-10-.27a.84.84 0 0 1 0-1.67q5 .1 10 .27a.84.84 0 0 1 0 1.67zm-30-.35a.84.84 0 0 1 0-1.67h10.02a.84.84 0 0 1 0 1.67h-9.99z"/><path class="cls-1" d="M1199.9 313.9a1.25 1.25 0 0 1 1.72-.41l16.34 10 2.17-19a1.25 1.25 0 1 1 2.49.28l-2.39 21a1.25 1.25 0 0 1-1.9.93l-18-11a1.25 1.25 0 0 1-.41-1.72z"/><path class="cls-1" d="M36.52 877.6a.83.83 0 0 1-.79-.55q-.84-2.36-1.67-4.73a.83.83 0 1 1 1.58-.55q.82 2.36 1.66 4.72a.83.83 0 0 1-.51 1.07.81.81 0 0 1-.27.04z"/><path class="cls-1" d="M653.71 1312.79q-5 0-10.08-.08a.84.84 0 0 1 0-1.67q5 .08 10 .08a.84.84 0 0 1 0 1.67zm10.06-.07a.84.84 0 0 1 0-1.67q5.05-.07 10.08-.22a.8.8 0 0 1 .86.81.84.84 0 0 1-.81.86q-5 .15-10.11.22zm-30.17-.24q-5-.15-10.07-.39a.83.83 0 0 1-.8-.87.82.82 0 0 1 .87-.8q5 .23 10 .38a.84.84 0 0 1 0 1.67zm50.35-.35a.84.84 0 0 1 0-1.67q5-.22 10.07-.53a.82.82 0 0 1 .88.78.84.84 0 0 1-.78.88q-5 .3-10.09.53zm-70.45-.57h-.05q-5-.31-10.05-.69a.84.84 0 0 1-.77-.9.82.82 0 0 1 .9-.77q5 .38 10 .69a.84.84 0 0 1-.05 1.67zm90.6-.64a.84.84 0 0 1-.06-1.67q5-.38 10-.84a.84.84 0 1 1 .15 1.66q-5 .46-10.07.84zm-110.66-.92h-.08q-5-.46-10-1a.83.83 0 0 1-.74-.92.82.82 0 0 1 .92-.74q5 .54 10 1a.84.84 0 0 1-.08 1.67zm130.77-.93a.84.84 0 0 1-.09-1.67q5-.53 10-1.14a.83.83 0 0 1 .93.73.84.84 0 0 1-.73.93q-5 .61-10 1.15zm-150.78-1.21h-.1q-5-.61-10-1.3a.83.83 0 1 1 .23-1.65q5 .69 10 1.3a.84.84 0 0 1-.1 1.66zm170.81-1.23a.84.84 0 0 1-.11-1.66q5-.69 10-1.45a.84.84 0 1 1 .25 1.65q-5 .76-10 1.45zm-190.75-1.53h-.13q-5-.77-9.95-1.61a.84.84 0 0 1 .28-1.65q4.95.84 9.92 1.61a.84.84 0 0 1-.13 1.66zm210.69-1.53a.84.84 0 0 1-.14-1.66q5-.84 9.92-1.76a.83.83 0 0 1 .3 1.64q-5 .92-9.94 1.76zm-230.53-1.84h-.15q-5-.92-9.89-1.92a.84.84 0 1 1 .33-1.64q4.92 1 9.87 1.91a.83.83 0 0 1-.15 1.66zm250.35-1.81a.84.84 0 0 1-.16-1.65q4.94-1 9.86-2.06a.83.83 0 0 1 .36 1.63q-4.93 1.07-9.89 2.07zm-270.09-2.15h-.18q-4.93-1.07-9.83-2.22a.84.84 0 0 1 .38-1.63q4.89 1.15 9.8 2.22a.84.84 0 0 1-.18 1.65zm289.8-2.13a.84.84 0 0 1-.19-1.65q4.91-1.15 9.79-2.37a.84.84 0 1 1 .4 1.62q-4.89 1.22-9.82 2.37zm-309.4-2.46h-.2q-4.89-1.23-9.75-2.53a.84.84 0 0 1-.59-1 .85.85 0 0 1 1-.59q4.85 1.3 9.73 2.52a.84.84 0 0 1-.2 1.65zm329-2.43a.84.84 0 0 1-.22-1.64q4.87-1.3 9.71-2.67a.84.84 0 0 1 .45 1.61q-4.85 1.37-9.73 2.67zm-348.43-2.75a.86.86 0 0 1-.23 0q-4.85-1.38-9.67-2.83a.83.83 0 1 1 .48-1.6q4.81 1.44 9.65 2.82a.84.84 0 0 1-.23 1.64zm367.8-2.73a.83.83 0 0 1-.24-1.63q4.83-1.45 9.62-3a.83.83 0 1 1 .5 1.59q-4.81 1.52-9.64 3a.82.82 0 0 1-.23.03zm-387-3.05a.85.85 0 0 1-.25 0q-4.79-1.52-9.55-3.11a.84.84 0 0 1 .53-1.59q4.74 1.59 9.52 3.1a.84.84 0 0 1-.25 1.63zm406.26-3a.84.84 0 0 1-.26-1.63q4.78-1.6 9.52-3.26a.84.84 0 0 1 .55 1.58q-4.76 1.67-9.55 3.27a.83.83 0 0 1-.29-.01zm-425.28-3.32a.82.82 0 0 1-.28 0q-4.74-1.67-9.45-3.4a.83.83 0 1 1 .58-1.57q4.69 1.73 9.42 3.39a.84.84 0 0 1-.28 1.62zm444.29-3.36a.83.83 0 0 1-.29-1.62q4.72-1.74 9.41-3.56a.84.84 0 1 1 .6 1.56q-4.71 1.82-9.44 3.56a.81.81 0 0 1-.31.01zm-463.11-3.59a.85.85 0 0 1-.3-.06q-4.69-1.81-9.34-3.69a.84.84 0 0 1 .63-1.55q4.64 1.88 9.32 3.68a.84.84 0 0 1-.3 1.61zm481.91-3.68a.84.84 0 0 1-.31-1.61q4.67-1.89 9.3-3.84a.84.84 0 0 1 .65 1.54q-4.64 2-9.32 3.85a.85.85 0 0 1-.35.02zm-500.51-3.85a.85.85 0 0 1-.32-.07q-4.63-2-9.23-4a.84.84 0 0 1 .67-1.53q4.58 2 9.2 4a.84.84 0 0 1-.32 1.61zm519.07-4a.84.84 0 0 1-.34-1.6q4.61-2 9.18-4.13a.84.84 0 1 1 .7 1.52q-4.58 2.1-9.2 4.14a.86.86 0 0 1-.37.04zm-537.44-4.1a.82.82 0 0 1-.35-.08q-4.57-2.1-9.1-4.26a.84.84 0 1 1 .72-1.51q4.52 2.16 9.08 4.25a.83.83 0 0 1-.35 1.59zm555.72-4.32a.84.84 0 0 1-.36-1.59q4.54-2.17 9-4.41a.83.83 0 0 1 .74 1.49q-4.51 2.25-9.06 4.42a.84.84 0 0 1-.32.09zm-573.86-4.35a.82.82 0 0 1-.37-.09q-4.5-2.24-9-4.54a.84.84 0 1 1 .77-1.48q4.45 2.3 8.95 4.53a.84.84 0 0 1-.37 1.58zm591.9-4.62a.84.84 0 0 1-.38-1.58q4.47-2.31 8.9-4.69a.83.83 0 0 1 .79 1.47q-4.44 2.38-8.92 4.7a.83.83 0 0 1-.39.07zm-609.74-4.59a.82.82 0 0 1-.39-.1q-4.43-2.38-8.83-4.82a.83.83 0 1 1 .81-1.46q4.38 2.43 8.8 4.81a.83.83 0 0 1-.4 1.57zm627.49-4.93a.84.84 0 0 1-.41-1.56q4.4-2.45 8.75-5a.83.83 0 1 1 .84 1.45q-4.37 2.52-8.77 5a.83.83 0 0 1-.41.08zm-645-4.83a.84.84 0 0 1-.42-.11q-4.36-2.52-8.68-5.09a.84.84 0 0 1 .86-1.44q4.31 2.57 8.65 5.08a.84.84 0 0 1-.42 1.56zm662.5-5.23a.83.83 0 0 1-.43-1.55q4.32-2.58 8.6-5.23a.84.84 0 0 1 .88 1.42q-4.29 2.65-8.62 5.24a.84.84 0 0 1-.48.09zm-679.75-5.06a.84.84 0 0 1-.44-.12q-4.28-2.65-8.52-5.35a.83.83 0 1 1 .9-1.41q4.23 2.7 8.5 5.34a.84.84 0 0 1-.44 1.55zm696.88-5.53a.84.84 0 0 1-.45-1.54q4.24-2.71 8.43-5.49a.84.84 0 0 1 .92 1.39q-4.2 2.78-8.45 5.5a.83.83 0 0 1-.46.11zm-713.82-5.29a.83.83 0 0 1-.46-.14q-4.2-2.77-8.35-5.61a.84.84 0 1 1 .94-1.38q4.14 2.83 8.33 5.6a.84.84 0 0 1-.46 1.53zm730.61-5.82a.84.84 0 0 1-.47-1.53q4.15-2.84 8.26-5.74a.83.83 0 0 1 1 1.36q-4.12 2.91-8.28 5.76a.84.84 0 0 1-.56.12zm-747.21-5.52a.82.82 0 0 1-.48-.15q-4.11-2.9-8.18-5.87a.84.84 0 0 1 1-1.35q4.06 3 8.16 5.85a.83.83 0 0 1-.48 1.52zm763.65-6.1a.84.84 0 0 1-.49-1.51q4.06-3 8.08-6a.84.84 0 1 1 1 1.33q-4 3-8.1 6a.84.84 0 0 1-.54.15zm-779.9-5.74a.83.83 0 0 1-.5-.17q-4-3-8-6.12a.83.83 0 1 1 1-1.32q4 3.08 8 6.1a.84.84 0 0 1-.5 1.5zm796-6.38a.84.84 0 0 1-.51-1.49q4-3.09 7.89-6.23a.84.84 0 0 1 1 1.3q-3.93 3.16-7.91 6.25a.83.83 0 0 1-.54.16zm-811.85-6a.83.83 0 0 1-.52-.18q-3.93-3.15-7.81-6.36a.84.84 0 0 1 1.06-1.29q3.87 3.2 7.79 6.34a.84.84 0 0 1-.52 1.49zm827.55-6.64a.84.84 0 0 1-.53-1.48q3.87-3.21 7.69-6.47a.84.84 0 1 1 1.09 1.27q-3.83 3.27-7.71 6.49a.84.84 0 0 1-.58.2zm-843.05-6.18a.84.84 0 0 1-.54-.2q-3.83-3.27-7.61-6.6a.83.83 0 1 1 1.1-1.25q3.77 3.32 7.59 6.58a.84.84 0 0 1-.54 1.47zm-15.1-13.29a.83.83 0 0 1-.56-.22q-3.73-3.38-7.41-6.82a.84.84 0 0 1 1.14-1.22q3.67 3.43 7.39 6.81a.83.83 0 0 1-.56 1.45zm-14.69-13.74a.83.83 0 0 1-.58-.23q-3.63-3.5-7.2-7a.84.84 0 0 1 1.18-1.18q3.56 3.54 7.18 7a.84.84 0 0 1-.58 1.44zm-14.35-14.16a.84.84 0 0 1-.6-.25q-3.52-3.6-7-7.27a.84.84 0 0 1 1.21-1.15q3.45 3.65 7 7.25a.84.84 0 0 1-.6 1.42zm-13.85-14.63a.83.83 0 0 1-.61-.27q-3.41-3.71-6.76-7.48a.83.83 0 0 1 1.25-1.11q3.34 3.75 6.74 7.46a.84.84 0 0 1-.61 1.4zm-13.38-15a.83.83 0 0 1-.63-.29q-3.29-3.81-6.53-7.68a.84.84 0 0 1 1.28-1.07q3.23 3.86 6.51 7.66a.84.84 0 0 1-.63 1.38zm-12.92-15.44a.84.84 0 0 1-.65-.31q-3.17-3.91-6.29-7.88a.83.83 0 1 1 1.31-1q3.11 4 6.27 7.86a.84.84 0 0 1-.65 1.36zm-12.44-15.83a.84.84 0 0 1-.67-.33q-3.05-4-6-8.07a.84.84 0 1 1 1.34-1l6 8a.83.83 0 0 1-.16 1.17.83.83 0 0 1-.5.19zm-12-16.21a.84.84 0 0 1-.68-.35q-2.93-4.11-5.8-8.25a.83.83 0 1 1 1.37-.95q2.86 4.14 5.78 8.23a.83.83 0 0 1-.68 1.32zm-11.46-16.57a.84.84 0 0 1-.69-.37q-2.8-4.19-5.54-8.43a.84.84 0 1 1 1.4-.91q2.73 4.23 5.53 8.4a.83.83 0 0 1-.69 1.3zm-10.94-16.92a.83.83 0 0 1-.71-.39q-2.67-4.27-5.28-8.59a.84.84 0 0 1 1.43-.86q2.6 4.31 5.27 8.57a.84.84 0 0 1-.71 1.28zm-10.37-17.28a.83.83 0 0 1-.72-.41q-2.54-4.35-5-8.75a.83.83 0 1 1 1.46-.82q2.47 4.39 5 8.73a.83.83 0 0 1-.3 1.14.82.82 0 0 1-.44.11zm-9.89-17.56a.84.84 0 0 1-.73-.44q-2.41-4.43-4.75-8.91a.83.83 0 1 1 1.48-.77q2.33 4.46 4.74 8.88a.83.83 0 0 1-.73 1.23zm-9.34-17.86a.83.83 0 0 1-.75-.46q-2.27-4.5-4.47-9.05a.84.84 0 0 1 1.5-.73q2.19 4.53 4.46 9a.84.84 0 0 1-.75 1.21zm-8.79-18.14a.83.83 0 0 1-.76-.48q-2.13-4.57-4.19-9.19a.84.84 0 0 1 1.48-.69q2.06 4.6 4.18 9.16a.83.83 0 0 1-.4 1.11.82.82 0 0 1-.31.08zm-8.23-18.42a.83.83 0 0 1-.77-.51q-2-4.64-3.91-9.32a.83.83 0 1 1 1.54-.63q1.9 4.66 3.9 9.32a.83.83 0 0 1-.77 1.16zm-7.66-18.66a.83.83 0 0 1-.78-.53q-1.84-4.7-3.62-9.43a.84.84 0 0 1 1.56-.59q1.77 4.72 3.61 9.41a.83.83 0 0 1-.78 1.14z"/><path class="cls-1" d="M1087.12 1149.44a.84.84 0 0 1-.55-1.46l3.74-3.32a.84.84 0 0 1 1.11 1.25l-3.75 3.33a.83.83 0 0 1-.55.2z"/><path class="cls-1" d="M1085.71 1165.53a1.25 1.25 0 0 1-.84-1.56l5.52-18.36-19 2.76a1.25 1.25 0 0 1-.36-2.48l20.91-3a1.25 1.25 0 0 1 1.38 1.6l-6.08 20.24a1.25 1.25 0 0 1-1.56.84z"/><path class="cls-1" d="M1085.24 796.56a.82.82 0 0 1-.3-.05.84.84 0 0 1-.49-1.08 459.65 459.65 0 0 0-13.61-355.43.84.84 0 0 1 1.51-.71 461.32 461.32 0 0 1 13.65 356.71.83.83 0 0 1-.76.56z"/><path class="cls-1" d="M1102.29 783.65a1.25 1.25 0 0 0-1.76-.22l-15.15 11.74-4.23-18.7a1.25 1.25 0 0 0-2.44.55l4.66 20.61a1.25 1.25 0 0 0 2 .71l16.71-12.94a1.25 1.25 0 0 0 .22-1.76z"/><path class="cls-1" d="M1024.29 924.86a1.67 1.67 0 0 1-1.31-2.71 456.2 456.2 0 0 0 68-119.21 1.67 1.67 0 1 1 3.12 1.2 459.51 459.51 0 0 1-68.48 120.08 1.66 1.66 0 0 1-1.33.64z"/><path class="cls-1" d="M655.63 1093.65a460 460 0 0 1-426.87-288.65.84.84 0 0 1 1.55-.62 458.29 458.29 0 0 0 425.32 287.62c141 0 272.11-63.53 359.65-174.31a.84.84 0 0 1 1.31 1c-87.86 111.19-219.42 174.96-360.96 174.96z"/><path class="cls-1" d="M229.54 463.77a.84.84 0 0 1-.77-1.15 460 460 0 0 1 808.14-85.86.84.84 0 1 1-1.38.94 458.29 458.29 0 0 0-805.21 85.55.83.83 0 0 1-.78.52z"/><path class="cls-1" d="M152.45 820.37a.83.83 0 0 1-.8-.59c-19.1-62.91-28.77-116.65-28.73-159.73 0-44.16 1.1-91 13.24-135.06a11.24 11.24 0 0 0-13-14l-103.42 20.77a.84.84 0 1 1-.33-1.64l103.38-20.8a12.91 12.91 0 0 1 15 16.1c-12.1 43.9-13.15 90.58-13.2 134.58 0 42.91 9.6 96.49 28.65 159.24a.83.83 0 0 1-.8 1.08z"/><path class="cls-1" d="M38.74 539.36a1.25 1.25 0 0 0-.72-1.62l-17.88-6.91 13.86-13.28a1.25 1.25 0 0 0-1.74-1.81l-15.26 14.65a1.25 1.25 0 0 0 .42 2.07l19.72 7.61a1.25 1.25 0 0 0 1.62-.72z"/><path class="cls-1" d="M27.49 848.66a.83.83 0 0 1-.18-1.65l202.05-43.09a.83.83 0 1 1 .35 1.63l-202.04 43.09z"/><path class="cls-1" d="M46.78 855.94a1.25 1.25 0 0 0-.74-1.61l-18.04-6.63 13.61-13.49a1.25 1.25 0 1 0-1.76-1.78l-15 14.88a1.25 1.25 0 0 0 .45 2.07l19.83 7.31a1.25 1.25 0 0 0 1.61-.74z"/><path class="cls-1" d="M1197.68 961a.83.83 0 0 1-.46-.14l-123.82-81.91a.84.84 0 0 1 .92-1.39l123.81 81.94a.84.84 0 0 1-.46 1.53z"/><path class="cls-1" d="M1094.78 877.67a1.25 1.25 0 0 1-1.28 1.23l-19.16-.34 7.8 17.51a1.25 1.25 0 1 1-2.29 1l-8.6-19.31a1.25 1.25 0 0 1 1.17-1.76l21.13.37a1.25 1.25 0 0 1 1.23 1.28z"/><path class="cls-1" d="M1071.59 440.44a.84.84 0 0 1-.38-1.58l101.23-50.92a.83.83 0 0 1 .75 1.49l-101.19 50.92a.81.81 0 0 1-.41.09z"/><path class="cls-1" d="M1187.5 843.36a.83.83 0 0 1-.78-1.14 572.48 572.48 0 0 0-2.41-422.79.83.83 0 0 1 1.55-.63 574.16 574.16 0 0 1 2.42 424 .84.84 0 0 1-.78.56z"/><path class="cls-1" d="M1204.68 830.65a1.25 1.25 0 0 0-1.76-.24l-15.28 11.59-4-18.74a1.25 1.25 0 1 0-2.45.52l4.43 20.67a1.25 1.25 0 0 0 2 .74l16.86-12.75a1.25 1.25 0 0 0 .24-1.76z"/><path class="cls-1" d="M1202.4 430.81a1.25 1.25 0 0 1-1.75.26l-15.41-11.4-3.81 18.79a1.25 1.25 0 0 1-2.46-.5l4.2-20.71a1.25 1.25 0 0 1 2-.76l17 12.57a1.25 1.25 0 0 1 .26 1.75z"/><path class="cls-1" d="M655.63 1205.87a571.81 571.81 0 0 1-497.14-288.87.84.84 0 1 1 1.45-.83 570.33 570.33 0 0 0 962.11 46 .83.83 0 1 1 1.36 1 571.33 571.33 0 0 1-467.78 242.72z"/><path class="cls-1" d="M157.53 937.42a1.25 1.25 0 0 0 1.3-1.21l.72-19.15 17.05 8.75a1.25 1.25 0 1 0 1.14-2.23l-18.81-9.65a1.25 1.25 0 0 0-1.82 1.07l-.79 21.12a1.25 1.25 0 0 0 1.21 1.3z"/><path class="cls-1" d="M1122.46 983.57a1.25 1.25 0 0 1-1.18-1.32l1.09-19.14-17.8 7.11a1.25 1.25 0 0 1-.93-2.33l19.63-7.84a1.25 1.25 0 0 1 1.72 1.23l-1.2 21.1a1.25 1.25 0 0 1-1.32 1.18z"/><path class="cls-1" d="M130.51 409.58a.82.82 0 0 1-.33-.07.83.83 0 0 1-.44-1.1 572.1 572.1 0 0 1 1006.64-84.68.84.84 0 1 1-1.4.91 569.88 569.88 0 0 0-479.35-261.15 570.5 570.5 0 0 0-524.35 345.58.84.84 0 0 1-.77.51z"/><path class="cls-1" d="M1136.24 303.29a1.25 1.25 0 0 0-1.23 1.27l.32 19.17-17.5-7.81a1.25 1.25 0 0 0-1 2.29l19.3 8.61a1.25 1.25 0 0 0 1.76-1.17l-.36-21.13a1.25 1.25 0 0 0-1.27-1.23z"/><path class="cls-1" d="M126.53 388.22a1.25 1.25 0 0 1 1.42 1.05l2.84 19 16-10.59a1.25 1.25 0 0 1 1.38 2.09l-17.62 11.67a1.25 1.25 0 0 1-1.93-.86l-3.13-20.9a1.25 1.25 0 0 1 1.05-1.42z"/></g></svg>