<svg xmlns="http://www.w3.org/2000/svg" width="300" height="179.252"><g fill="#FEFEFE"><path d="M71.669 116.215h-17.05l-12.805-21.69-12.87 21.689h-17.115l20.637-30.972-18.892-28.864h16.489l11.719 20.242 11.585-20.242h16.489l-18.76 28.799 20.507 31.038h.066zm34.066.099c-1.349.296-2.732.493-4.181.657-1.448.165-3.027.264-4.739.264-2.962 0-5.432-.296-7.44-.854-2.007-.562-3.653-1.384-4.937-2.437s-2.237-2.369-2.896-3.885c-.659-1.546-1.12-3.29-1.448-5.232s-.494-4.082-.494-6.451c-.033-2.338-.033-4.839-.033-7.505v-23.106h-7.767v-11.387h7.767v-14.911h15.537v14.911h9.775v11.387h-9.775v28.8c0 1.908.131 3.488.362 4.707.264 1.186.626 2.14 1.119 2.799.495.69 1.054 1.151 1.746 1.382.69.263 1.48.362 2.37.362 1.579 0 3.291-.1 5.035-.329v10.828zm32.289 1.285c-4.938 0-9.315-.725-13.101-2.173-3.818-1.448-7.042-3.489-9.644-6.188-2.602-2.698-4.575-5.99-5.958-9.843-1.383-3.883-2.074-8.229-2.074-13.066 0-4.938.69-9.314 2.041-13.2 1.382-3.851 3.323-7.141 5.892-9.841 2.567-2.666 5.694-4.738 9.38-6.122 3.687-1.384 7.898-2.107 12.64-2.107 4.542 0 8.623.658 12.276 2.007 3.621 1.352 6.748 3.325 9.347 5.958 2.602 2.633 4.577 5.859 5.959 9.709 1.383 3.851 2.073 8.23 2.073 13.132v3.721h-43.675c.132 3.126.592 5.825 1.382 8.096.79 2.238 1.843 4.115 3.16 5.564 1.284 1.447 2.83 2.533 4.574 3.226 1.746.69 3.687 1.053 5.729 1.053 3.227 0 5.958-.69 8.196-2.073 2.237-1.382 3.851-3.786 4.872-7.177h14.515c-.559 3.095-1.646 5.894-3.225 8.296-1.581 2.436-3.557 4.475-5.926 6.122-2.37 1.678-5.134 2.896-8.229 3.752-3.093.821-6.516 1.25-10.17 1.25l-.034-.096zm13.133-37.558c-.593-5.167-2.14-9.017-4.575-11.584-2.436-2.534-5.562-3.818-9.446-3.818-3.787 0-6.913 1.284-9.348 3.818-2.436 2.534-3.951 6.417-4.575 11.584h27.944zm50.36 37.558c-4.707 0-8.854-.692-12.573-2.074-3.688-1.383-6.812-3.423-9.382-6.122-2.566-2.666-4.541-5.957-5.924-9.842-1.382-3.884-2.074-8.295-2.074-13.265 0-4.971.692-9.413 2.074-13.298 1.383-3.917 3.357-7.175 5.924-9.841 2.569-2.666 5.694-4.707 9.382-6.056 3.686-1.383 7.866-2.074 12.573-2.074 3.555 0 6.813.461 9.841 1.351 2.995.889 5.629 2.238 7.834 4.014 2.238 1.778 4.082 3.951 5.431 6.583 1.383 2.602 2.239 5.563 2.633 8.986h-14.383c-.429-2.897-1.613-5.2-3.62-6.912-2.008-1.744-4.575-2.6-7.735-2.6-2.14 0-4.082.395-5.793 1.185-1.745.791-3.227 2.008-4.477 3.653-1.251 1.613-2.206 3.686-2.863 6.188-.692 2.501-1.021 5.463-1.021 8.888 0 3.39.328 6.318 1.021 8.819.657 2.502 1.612 4.543 2.863 6.189 1.25 1.646 2.731 2.864 4.477 3.686 1.743.824 3.686 1.219 5.793 1.219 1.513 0 2.93-.197 4.246-.657 1.35-.428 2.501-1.055 3.521-1.91.987-.823 1.81-1.844 2.437-2.996.591-1.185.986-2.468 1.184-3.949h14.384c-.427 3.291-1.349 6.254-2.764 8.822-1.383 2.6-3.194 4.772-5.399 6.582-2.238 1.811-4.805 3.16-7.801 4.114-2.994.954-6.253 1.383-9.775 1.383l-.034-.066zm47.528-66.028c0 2.042-.032 4.081-.098 6.188-.066 2.075-.132 4.082-.23 5.991 5.43-5.826 11.552-8.756 18.397-8.756 13.66 0 20.473 7.373 20.473 22.086v39.135h-15.534v-37.883c0-4.147-.725-7.111-2.106-8.922-1.383-1.842-3.719-2.764-6.914-2.764-2.369 0-4.705.725-7.075 2.107-2.337 1.382-4.641 3.456-6.912 6.154v41.308h-15.536v-82.746h15.536v18.102z"/><path d="M18.049 146.859c-1.25 0-2.304-.23-3.191-.658-.889-.429-1.548-1.088-2.008-1.909-.461-.856-.658-1.877-.658-3.095s.264-2.6.79-4.181c.527-1.547 1.185-2.929 1.975-4.146.822-1.218 1.711-2.238 2.731-3.093 1.021-.856 2.107-1.482 3.259-1.909 1.185-.46 2.403-.659 3.654-.659.953 0 1.809.133 2.534.396.723.264 1.316.657 1.776 1.152.462.493.757 1.152.922 1.908.132.757.132 1.646-.098 2.6h-3.259c.165-.559.197-1.052.165-1.48-.066-.428-.23-.789-.46-1.087-.263-.296-.593-.493-1.02-.656-.428-.165-.89-.23-1.416-.23-.757 0-1.481.164-2.206.46-.723.296-1.415.758-2.074 1.349-.658.594-1.251 1.35-1.81 2.272-.559.888-1.021 1.94-1.415 3.125-.395 1.186-.626 2.238-.692 3.128-.066.889.033 1.646.297 2.271.23.592.625 1.054 1.151 1.35.527.296 1.152.462 1.909.462.493 0 1.021-.067 1.514-.199.527-.132.988-.361 1.449-.625.461-.297.856-.625 1.218-1.053.362-.429.659-.922.856-1.48h3.259c-.462.986-1.021 1.875-1.68 2.633-.658.756-1.382 1.382-2.172 1.877-.791.493-1.646.889-2.567 1.151-.922.263-1.843.395-2.766.395l.033-.069zm40.256-19.65c1.284 0 2.37.231 3.259.659.888.46 1.547 1.086 1.974 1.942.461.854.659 1.875.626 3.093-.033 1.218-.296 2.6-.791 4.113-.526 1.548-1.185 2.963-2.007 4.181-.79 1.218-1.712 2.238-2.732 3.095-1.02.855-2.106 1.48-3.292 1.909-1.185.461-2.402.658-3.653.658s-2.304-.23-3.193-.658c-.889-.429-1.546-1.088-2.008-1.909-.46-.856-.657-1.877-.657-3.095s.263-2.6.79-4.181c.527-1.547 1.186-2.929 1.975-4.146.823-1.218 1.712-2.238 2.731-3.093 1.021-.856 2.107-1.482 3.259-1.909 1.186-.46 2.403-.659 3.654-.659h.065zm-5.696 17.018c.758 0 1.482-.166 2.207-.462s1.415-.758 2.041-1.35c.657-.593 1.25-1.349 1.777-2.271.56-.89 1.02-1.942 1.416-3.128.395-1.185.625-2.237.69-3.125.066-.89-.033-1.646-.295-2.272-.23-.591-.626-1.053-1.152-1.349-.527-.296-1.152-.46-1.91-.46-.756 0-1.48.164-2.205.46-.725.296-1.416.758-2.074 1.349-.659.594-1.251 1.35-1.811 2.272-.559.888-1.019 1.94-1.415 3.125-.395 1.186-.625 2.238-.69 3.128-.066.889.033 1.646.296 2.271.23.592.625 1.054 1.152 1.35.526.296 1.152.462 1.908.462h.065zm51.711 2.172h-3.193l4.048-12.114c.263-.789.429-1.448.527-2.007.099-.56.066-.987-.033-1.351-.099-.361-.297-.592-.593-.756-.296-.165-.69-.23-1.185-.23-1.547 0-3.391.986-5.562 2.995l-4.51 13.43h-3.096l4.051-12.114c.263-.788.427-1.447.526-2.006.066-.561.066-.987-.033-1.352-.099-.361-.329-.591-.626-.756-.296-.164-.69-.229-1.185-.229-1.514 0-3.357.985-5.53 2.994l-4.508 13.43h-3.16l6.286-18.729h3.161l-.791 2.37c2.172-1.876 4.148-2.832 5.959-2.832 2.6 0 3.883 1.152 3.851 3.424.856-.756 1.612-1.35 2.238-1.81.625-.462 1.218-.79 1.711-1.054.494-.229.955-.395 1.382-.461.396-.066.823-.1 1.218-.1 3.653 0 4.707 2.305 3.16 6.945l-4.113 12.278v.035zm45.092 0h-3.192l4.048-12.114c.263-.789.427-1.448.527-2.007.098-.56.065-.987-.034-1.351-.098-.361-.295-.592-.591-.756-.296-.165-.692-.23-1.185-.23-1.547 0-3.39.986-5.563 2.995l-4.509 13.43h-3.095l4.049-12.114c.264-.788.429-1.447.527-2.006.065-.561.065-.987-.033-1.352-.099-.361-.329-.591-.626-.756-.296-.164-.69-.229-1.184-.229-1.514 0-3.357.985-5.531 2.994l-4.509 13.43h-3.16l6.287-18.729h3.159l-.789 2.37c2.172-1.876 4.147-2.832 5.958-2.832 2.6 0 3.884 1.152 3.851 3.424.855-.756 1.613-1.35 2.237-1.81.626-.462 1.218-.79 1.712-1.054.493-.229.955-.395 1.382-.461.394-.066.823-.1 1.218-.1 3.653 0 4.706 2.305 3.16 6.945l-4.115 12.278v.035zm28.438.46c-1.283 0-2.402-.23-3.323-.658-.921-.429-1.613-1.088-2.106-1.909-.493-.856-.725-1.877-.725-3.095s.265-2.6.758-4.181c.525-1.514 1.185-2.896 2.008-4.113.822-1.218 1.711-2.238 2.731-3.093 1.021-.856 2.14-1.482 3.291-1.942 1.186-.46 2.37-.692 3.621-.692 1.283 0 2.369.232 3.259.659.89.46 1.546 1.086 1.976 1.942.46.854.657 1.875.624 3.093-.032 1.218-.295 2.6-.789 4.114l-.265.79h-13.396c-.296 1.086-.427 2.041-.395 2.83.033.79.197 1.482.495 2.008.295.526.723.922 1.25 1.186.526.263 1.184.395 1.908.395.527 0 1.054-.066 1.646-.23.559-.132 1.12-.361 1.614-.657.525-.298.986-.659 1.382-1.087.395-.428.69-.921.889-1.449h3.323c-.46.955-1.021 1.844-1.711 2.568-.691.756-1.48 1.383-2.304 1.91-.856.493-1.778.889-2.732 1.185-.988.263-1.976.395-2.963.395l-.066.031zm8.591-11.652c.164-.889.197-1.678.132-2.337-.066-.657-.23-1.218-.526-1.678-.296-.462-.659-.791-1.151-1.021-.493-.23-1.055-.361-1.679-.361-.626 0-1.285.099-1.909.328-.626.23-1.22.559-1.812.988-.593.46-1.152 1.019-1.68 1.678-.525.659-1.02 1.447-1.447 2.37h10.039l.033.033zm34.099-4.51c-.394-.164-1.021-.229-1.843-.229s-1.646.229-2.502.659c-.821.46-1.678 1.119-2.6 2.007l-4.442 13.266h-3.16l6.286-18.729h3.16l-.856 2.566c2.041-2.041 3.917-3.062 5.694-3.062.197 0 .428 0 .657.033.232.033.462.067.726.133l-1.12 3.356zm20.44 16.162c-1.252 0-2.304-.23-3.192-.658-.889-.429-1.546-1.088-2.008-1.909-.461-.856-.658-1.877-.658-3.095s.263-2.6.789-4.181c.528-1.547 1.185-2.929 1.976-4.146.823-1.218 1.711-2.238 2.731-3.093 1.021-.856 2.106-1.482 3.259-1.909 1.186-.46 2.403-.659 3.655-.659.954 0 1.809.133 2.533.396.724.264 1.317.657 1.777 1.152.462.493.757 1.152.922 1.908.131.757.131 1.646-.099 2.6h-3.259c.164-.559.196-1.052.164-1.48-.065-.428-.23-.789-.461-1.087-.263-.296-.591-.493-1.02-.656-.428-.165-.89-.23-1.415-.23-.758 0-1.482.164-2.206.46-.725.296-1.416.758-2.074 1.349-.658.594-1.25 1.35-1.811 2.272-.559.888-1.02 1.94-1.415 3.125-.395 1.186-.626 2.238-.691 3.128-.065.889.032 1.646.297 2.271.23.592.625 1.054 1.152 1.35.525.296 1.152.462 1.908.462.494 0 1.021-.067 1.514-.199.527-.132.988-.361 1.449-.625.46-.297.856-.625 1.218-1.053.363-.429.659-.922.856-1.48h3.259c-.46.986-1.021 1.875-1.678 2.633-.659.756-1.384 1.382-2.174 1.877-.79.493-1.646.889-2.567 1.151s-1.845.395-2.767.395l.036-.069zm34.001 0c-1.283 0-2.402-.23-3.325-.658-.919-.429-1.611-1.088-2.104-1.909-.494-.856-.725-1.877-.725-3.095s.263-2.6.758-4.181c.525-1.514 1.185-2.896 2.006-4.113.824-1.218 1.713-2.238 2.733-3.093 1.02-.856 2.138-1.482 3.29-1.942 1.185-.46 2.37-.692 3.62-.692 1.284 0 2.37.232 3.26.659.889.46 1.546 1.086 1.975 1.942.461.854.658 1.875.625 3.093s-.296 2.6-.791 4.114l-.263.79h-13.395c-.297 1.086-.428 2.041-.396 2.83.033.79.197 1.482.493 2.008.298.526.725.922 1.251 1.186.527.263 1.185.395 1.909.395.526 0 1.054-.066 1.646-.23.56-.132 1.119-.361 1.614-.657.525-.298.985-.659 1.381-1.087s.69-.921.888-1.449h3.325c-.46.955-1.021 1.844-1.711 2.568-.691.756-1.482 1.383-2.305 1.91-.855.493-1.777.889-2.73 1.185-.988.263-1.976.395-2.963.395l-.066.031zm8.591-11.652c.164-.889.197-1.678.131-2.337-.065-.657-.229-1.218-.526-1.678-.296-.462-.658-.791-1.151-1.021-.494-.23-1.054-.361-1.68-.361-.624 0-1.283.099-1.908.328-.626.23-1.217.559-1.811.988-.592.46-1.152 1.019-1.678 1.678s-1.021 1.447-1.448 2.37h10.038l.033.033z"/></g></svg>